HIERARCHY
ROOT Hips
{
	OFFSET -3.958830 18.904000 13.208200
	CHANNELS 6 Xposition Yposition Zposition Zrotation Yrotation Xrotation 
	JOINT LHipJoint
	{
		OFFSET 0.000000 0.000000 0.000000
		CHANNELS 3 Zrotation Yrotation Xrotation
		JOINT LeftUpLeg
		{
			OFFSET 1.800000 -1.400000 0.085000
			CHANNELS 3 Zrotation Yrotation Xrotation
			JOINT LeftLeg
			{
				OFFSET 2.215000 -6.000000 0.000000
				CHANNELS 3 Zrotation Yrotation Xrotation
				JOINT LeftFoot
				{
					OFFSET 2.500000 -6.900000 0.000000
					CHANNELS 3 Zrotation Yrotation Xrotation
					JOINT LeftToeBase
					{
						OFFSET 0.200000 -0.500000 1.950000
						CHANNELS 3 Zrotation Yrotation Xrotation
						End Site
						{
							OFFSET 0.000000 0.000000 0.000000
						}
					}
				}
			}
		}
	}
	JOINT RHipJoint
	{
		OFFSET 0.000000 0.000000 0.000000
		CHANNELS 3 Zrotation Yrotation Xrotation
		JOINT RightUpLeg
		{
			OFFSET -1.800000 -1.400000 0.085000
			CHANNELS 3 Zrotation Yrotation Xrotation
			JOINT RightLeg
			{
				OFFSET -2.215000 -6.000000 0.000000
				CHANNELS 3 Zrotation Yrotation Xrotation
				JOINT RightFoot
				{
					OFFSET -2.500000 -6.900000 0.000000
					CHANNELS 3 Zrotation Yrotation Xrotation
					JOINT RightToeBase
					{
						OFFSET -0.200000 -0.500000 1.950000
						CHANNELS 3 Zrotation Yrotation Xrotation
						End Site
						{
							OFFSET 0.000000 0.000000 0.000000
						}
					}
				}
			}
		}
	}
	JOINT LowerBack
	{
		OFFSET 0.000000 0.000000 0.000000
		CHANNELS 3 Zrotation Yrotation Xrotation
		JOINT Spine
		{
			OFFSET -0.087000 1.940000 -0.288900
			CHANNELS 3 Zrotation Yrotation Xrotation
			JOINT Spine1
			{
				OFFSET 0.000000 1.950000 0.060000
				CHANNELS 3 Zrotation Yrotation Xrotation
				JOINT Neck
				{
					OFFSET 0.000000 0.000000 0.000000
					CHANNELS 3 Zrotation Yrotation Xrotation
					JOINT Neck1
					{
						OFFSET 0.000000 1.600000 0.340000
						CHANNELS 3 Zrotation Yrotation Xrotation
						JOINT Head
						{
							OFFSET 0.000000 1.667000 -0.240000
							CHANNELS 3 Zrotation Yrotation Xrotation
							End Site
							{
								OFFSET 0.000000 0.000000 0.000000
							}
						}
					}
				}
				JOINT LeftShoulder
				{
					OFFSET 0.000000 0.000000 0.000000
					CHANNELS 3 Zrotation Yrotation Xrotation
					JOINT LeftArm
					{
						OFFSET 2.700000 1.550000 -0.730000
						CHANNELS 3 Zrotation Yrotation Xrotation
						JOINT LeftForeArm
						{
							OFFSET 5.450000 0.000000 0.000000
							CHANNELS 3 Zrotation Yrotation Xrotation
							JOINT LeftHand
							{
								OFFSET 3.450000 0.000000 0.000000
								CHANNELS 3 Zrotation Yrotation Xrotation
								JOINT LeftHandIndex1
								{
									OFFSET 0.750000 0.000000 0.000000
									CHANNELS 3 Zrotation Yrotation Xrotation
									End Site
									{
										OFFSET 0.000000 0.000000 0.000000
									}
								}
							}
						}
					}
				}
				JOINT RightShoulder
				{
					OFFSET 0.000000 0.000000 0.000000
					CHANNELS 3 Zrotation Yrotation Xrotation
					JOINT RightArm
					{
						OFFSET -2.700000 1.550000 -0.730000
						CHANNELS 3 Zrotation Yrotation Xrotation
						JOINT RightForeArm
						{
							OFFSET -5.450000 0.000000 0.000000
							CHANNELS 3 Zrotation Yrotation Xrotation
							JOINT RightHand
							{
								OFFSET -3.450000 0.000000 0.000000
								CHANNELS 3 Zrotation Yrotation Xrotation
								JOINT RightHandIndex1
								{
									OFFSET -0.750000 0.000000 0.000000
									CHANNELS 3 Zrotation Yrotation Xrotation
									End Site
									{
										OFFSET 0.000000 0.000000 0.000000
									}
								}
							}
						}
					}
				}
			}
		}
	}
}
MOTION
Frames: 8
Frame Time: 0.016667
-0.221180 16.323020 0.844840 -4.055759 -32.728026 -18.494831 -15.697933 12.035827 4.594406 22.495334 6.694025 -47.351935 10.225970 9.653978 46.368109 0.060608 8.766308 1.091198 0.233350 0.250510 0.126940 18.084182 -9.088446 2.729646 -33.448416 13.641465 -7.595961 22.808901 -24.617120 57.526597 -2.105275 -11.553673 0.239212 0.058770 0.123520 0.180990 -2.723494 -2.533161 -9.015478 -3.767070 12.633306 51.939776 -2.661340 16.602870 11.923374 2.432272 -6.406660 -14.669571 -18.357209 10.951559 52.225386 4.192980 1.513870 -25.648980 -14.743784 -18.448016 6.541847 -31.138667 -7.799169 -7.232427 -145.114866 -42.989488 76.638199 -3.521749 3.423489 0.768570 -0.221140 0.377780 0.030900 8.687306 33.195259 10.238339 19.507876 17.822591 -12.656946 163.610619 47.682060 110.038705 2.260952 -1.487529 -0.150530 0.417340 0.156580 0.016240 
-0.225850 16.311650 0.838020 -3.884472 -32.411524 -18.640874 -15.686163 12.023537 4.575827 22.225118 6.574761 -47.414212 10.311831 9.567755 46.432140 0.034834 8.737666 1.074416 0.242650 0.258230 0.148850 18.091480 -9.103133 2.758101 -33.626867 13.742300 -7.609813 22.958252 -24.784389 57.700338 -2.119563 -11.581893 0.212638 0.062580 0.092260 0.181710 -2.756384 -2.468849 -9.006718 -3.741319 12.630581 52.204756 -2.732302 16.493718 11.833941 2.374195 -6.281341 -14.493939 -18.281404 10.900400 53.365247 4.260410 1.367240 -26.312720 -14.537190 -17.771571 6.510833 -31.859522 -6.908301 -7.579046 -143.923029 -42.302107 73.539987 -3.503276 3.435361 0.788630 -0.240750 0.393030 0.004600 8.518479 32.426107 9.933396 20.544226 18.022629 -12.571896 161.680404 47.523389 105.947264 2.295256 -1.480246 -0.145450 0.407130 0.163970 0.001580 
-0.223190 16.300660 0.818570 -3.907451 -32.089379 -18.831775 -15.675012 12.057139 4.519206 21.925496 6.501611 -47.280092 10.632686 9.216663 46.034648 -0.013645 8.606602 1.080487 0.283280 0.291600 0.208930 18.093066 -9.099397 2.801343 -33.642368 13.948491 -7.409451 23.560116 -25.002587 57.480198 -2.160529 -11.573453 0.186501 0.073220 0.026810 0.199300 -2.773465 -2.480895 -8.990044 -3.312767 12.516963 53.070262 -2.758069 16.416255 11.780106 2.469014 -6.208045 -14.235217 -18.755971 10.889740 55.216126 3.919950 1.174760 -28.429620 -14.458335 -16.555186 6.360398 -33.816255 -5.790258 -8.094517 -142.403093 -41.604411 69.951752 -3.460144 3.440676 0.841250 -0.286360 0.447760 -0.022660 8.069317 31.121431 9.478004 21.998189 17.793805 -12.774153 158.104002 47.105173 98.242828 2.347890 -1.481440 -0.126790 0.393240 0.156270 -0.022010 
-0.210070 16.297530 0.791500 -4.264737 -31.662493 -18.683606 -15.633814 12.027662 4.490126 21.758739 6.463942 -47.191587 10.639377 8.910953 45.218889 -0.046361 8.395385 1.117514 0.337850 0.358800 0.264110 18.117615 -9.144380 2.868349 -33.423033 14.132810 -7.315676 24.374691 -25.151777 56.922458 -2.200423 -11.527170 0.184751 0.094130 -0.046760 0.201860 -2.892442 -2.301533 -8.981168 -1.797042 11.677470 54.079586 -3.488922 16.048421 11.748294 2.792516 -6.041310 -14.423252 -19.103462 11.261958 58.004200 3.514370 1.109870 -29.367320 -13.950388 -15.740137 6.375886 -36.494787 -4.413218 -9.036625 -139.897287 -39.953840 63.118179 -3.384044 3.458832 0.875070 -0.334920 0.508550 -0.031110 6.870583 29.920847 9.430313 24.234642 16.780241 -13.330219 154.629129 46.626480 90.178402 2.403009 -1.502698 -0.093560 0.379510 0.125060 -0.032040 
-0.194570 16.320640 0.734090 -4.215910 -31.381732 -18.481518 -15.589178 12.005436 4.436361 21.413015 6.386788 -46.974343 10.180223 8.756347 43.847279 -0.113151 8.135075 1.181597 0.367340 0.394140 0.285810 18.143756 -9.196425 2.956467 -33.387520 14.351198 -7.745496 25.107629 -25.146938 56.336966 -2.215455 -11.477333 0.183935 0.112040 -0.084810 0.199950 -3.016316 -2.109485 -8.954451 -0.756239 11.149650 55.105335 -4.187850 15.805071 11.878698 2.998474 -5.823496 -14.653651 -18.945068 11.814575 60.223735 3.418000 1.262270 -29.520990 -13.396263 -15.362898 6.448573 -38.717288 -3.231627 -10.102169 -138.226468 -38.807638 58.259507 -3.332618 3.464500 0.906910 -0.363070 0.541210 -0.032560 5.865723 29.189336 9.535423 26.218272 16.026860 -13.737470 153.668923 45.930453 86.427776 2.422486 -1.519941 -0.086900 0.378490 0.115220 -0.042320 
-0.177730 16.351010 0.656470 -3.969660 -31.444324 -17.799583 -15.564059 11.923842 4.424869 21.289814 6.322012 -46.974409 9.334497 8.811866 42.290801 -0.178461 7.905546 1.251473 0.393110 0.421580 0.311850 18.171904 -9.200986 3.051836 -33.545803 14.557510 -9.275445 25.461196 -25.036491 56.156925 -2.219939 -11.436691 0.188016 0.129830 -0.101940 0.196850 -3.130120 -1.909075 -8.943160 -0.104558 10.844671 55.564813 -4.651016 15.566844 12.257537 3.044670 -5.834999 -14.569718 -19.071166 12.229601 61.364697 3.232100 1.342070 -30.196140 -12.184956 -14.564159 6.433652 -41.578355 -2.945389 -10.571702 -138.321497 -38.296711 57.157937 -3.303668 3.458126 0.931210 -0.379910 0.564820 -0.029200 4.439284 28.196790 9.253773 28.452199 16.458917 -13.728577 153.212333 45.295805 84.038646 2.441574 -1.524228 -0.088780 0.397480 0.105370 -0.049650 
-0.152550 16.388180 0.558790 -3.679184 -31.184868 -16.712269 -15.535046 11.804813 4.450141 20.964066 5.849812 -47.347915 8.565232 8.702571 40.597794 -0.263756 7.618456 1.346314 0.397070 0.427430 0.314950 18.207290 -9.184792 3.174265 -33.759950 14.580422 -11.349282 25.854525 -25.049750 56.044938 -2.215083 -11.414200 0.192502 0.140980 -0.106490 0.182000 -3.260667 -1.720364 -8.955383 0.383410 10.255763 56.163121 -5.243061 14.890371 12.317841 3.076874 -6.011137 -14.648539 -19.443941 12.738949 61.710502 3.357200 1.286550 -31.092960 -10.832094 -14.412972 6.701482 -44.221730 -2.679699 -11.136794 -138.836394 -38.232464 57.173146 -3.290116 3.431191 0.958080 -0.393340 0.571980 -0.033710 3.089036 27.863568 9.084837 30.591279 17.381787 -13.531106 153.747237 44.608656 83.329622 2.454427 -1.509185 -0.106050 0.424900 0.112730 -0.057750 
-0.122730 16.431120 0.447850 -3.259036 -31.275002 -15.080717 -15.528832 11.629964 4.543419 20.895916 5.369805 -48.011802 7.262364 8.785317 38.694499 -0.290148 7.323103 1.446070 0.411760 0.453720 0.323910 18.237805 -9.118103 3.296965 -33.883650 14.555669 -14.270315 25.900004 -24.789439 55.970442 -2.194002 -11.354213 0.195005 0.145730 -0.128860 0.183630 -3.360614 -1.548782 -9.004475 0.770139 9.788718 56.290612 -5.873216 14.337875 12.257038 3.295275 -6.198190 -14.818819 -19.850370 12.804987 61.646417 3.038420 0.939920 -31.173010 -9.404299 -14.729841 6.919883 -46.502499 -3.599265 -11.479889 -138.662861 -39.424171 58.633219 -3.276011 3.442367 0.941820 -0.408290 0.586730 -0.030820 1.356030 28.127273 9.207303 32.618316 18.318310 -13.452300 154.172435 44.662573 83.508724 2.492410 -1.515169 -0.080920 0.409840 0.095170 -0.045200 
